<svg xmlns="http://www.w3.org/2000/svg" xmlns:xlink="http://www.w3.org/1999/xlink" width="499.77" height="509.79" viewBox="0 0 499.77 509.79">
  <defs>
    <style>
      .cls-1, .cls-13, .cls-5, .cls-7 {
        fill: none;
      }

      .cls-2 {
        fill: #82a9bd;
      }

      .cls-3 {
        fill: #e1ecc5;
      }

      .cls-4 {
        fill: #f5f7e5;
      }

      .cls-5 {
        stroke: #2b487c;
      }

      .cls-13, .cls-16, .cls-5, .cls-7 {
        stroke-miterlimit: 10;
      }

      .cls-6 {
        fill: #d8b89a;
      }

      .cls-16, .cls-7 {
        stroke: #004c75;
      }

      .cls-8 {
        fill: #ccae93;
      }

      .cls-9 {
        fill: #eefbff;
      }

      .cls-10 {
        fill: #90c048;
      }

      .cls-11 {
        fill: #004e76;
      }

      .cls-12 {
        fill: #000d1d;
      }

      .cls-13 {
        stroke: #000;
      }

      .cls-14 {
        fill: #d9e6ec;
      }

      .cls-15 {
        fill: #d2dae2;
      }

      .cls-16, .cls-18 {
        fill: #fff;
      }

      .cls-17 {
        fill: #004c75;
      }

      .cls-19 {
        fill: #aec8d4;
      }

      .cls-20 {
        clip-path: url(#clip-path);
      }

      .cls-21 {
        clip-path: url(#clip-path-2);
      }

      .cls-22 {
        clip-path: url(#clip-path-3);
      }

      .cls-23 {
        clip-path: url(#clip-path-4);
      }

      .cls-24 {
        clip-path: url(#clip-path-5);
      }

      .cls-25 {
        clip-path: url(#clip-path-6);
      }
    </style>
    <clipPath id="clip-path">
      <circle id="SVGID" class="cls-1" cx="418.06" cy="78.58" r="15.94"/>
    </clipPath>
    <clipPath id="clip-path-2">
      <circle id="SVGID-2" data-name="SVGID" class="cls-1" cx="105.32" cy="103.64" r="15.94"/>
    </clipPath>
    <clipPath id="clip-path-3">
      <circle id="SVGID-3" data-name="SVGID" class="cls-1" cx="468.61" cy="43.81" r="15.94"/>
    </clipPath>
    <clipPath id="clip-path-4">
      <circle id="SVGID-4" data-name="SVGID" class="cls-1" cx="130.24" cy="238.19" r="15.94"/>
    </clipPath>
    <clipPath id="clip-path-5">
      <circle id="SVGID-5" data-name="SVGID" class="cls-1" cx="447.97" cy="176.43" r="15.94"/>
    </clipPath>
    <clipPath id="clip-path-6">
      <circle id="SVGID-6" data-name="SVGID" class="cls-1" cx="34.13" cy="197.4" r="15.94"/>
    </clipPath>
  </defs>
  <g id="Ebene_2" data-name="Ebene 2">
    <g id="Content_Header" data-name="Content Header">
      <g>
        <g>
          <ellipse class="cls-2" cx="284.5" cy="504.79" rx="132.5" ry="5"/>
          <g>
            <path class="cls-3" d="M177.63,119.31a1611.76,1611.76,0,0,1,203.6-81.58C389.56,35,398.7,32.4,407,35.22c11.07,3.77,16.15,15.56,19.5,26.18,29.88,94.7,23.55,197.1-2.89,292.71-5.32,19.21-12,39.19-27.44,52.75-17,15-41.51,19.41-64.69,21.83a604.79,604.79,0,0,1-109.89,1.42c-17.88-1.4-37.7-4.64-48.43-18.16-7.26-9.16-8.72-21.16-9.73-32.54C155.69,292.15,159.93,204,177.63,119.31Z"/>
            <path class="cls-4" d="M164.5,115.82A1545.53,1545.53,0,0,1,359.76,37.58c8-2.59,16.76-5.11,24.7-2.41,10.62,3.62,15.48,14.93,18.7,25.11,28.65,90.83,22.59,189-2.77,280.73-5.1,18.42-11.54,37.58-26.31,50.59C357.74,406,334.26,410.21,312,412.53a580.65,580.65,0,0,1-105.39,1.37c-17.14-1.34-36.16-4.45-46.44-17.42-7-8.78-8.37-20.29-9.34-31.21C143.45,281.58,147.52,197,164.5,115.82Z"/>
            <polyline class="cls-5" points="386.81 229.45 398.08 502.37 389.08 502.75 371.17 229.36"/>
            <path class="cls-6" d="M273.08,38.47A32.92,32.92,0,0,1,291,44.66a24.1,24.1,0,0,1,9.62,16.08c.65,5.61-1,11.22-2.9,16.53-3.18,8.85-7.46,17.73-14.85,23.55-2.3,1.81-5.23,3.34-8.05,2.58-2.59-.69-4.3-3.09-5.79-5.32L262.3,88c-4.16-6.22-8.41-12.67-9.78-20a28.31,28.31,0,0,1,8.71-25.74C265,38.79,270.55,36.41,273.08,38.47Z"/>
            <polygon class="cls-7" points="287.08 343.88 312.67 503.16 308.21 503.16 271.6 344.38 287.08 343.88"/>
            <path class="cls-6" d="M261.92,73.59a233.48,233.48,0,0,1-21.76,22.83,25.61,25.61,0,0,0-5.32,5.93,14,14,0,0,0,.51,13.82,18.8,18.8,0,0,0,11.53,8.16c4.68,1.19,12.64,12.75,17.31,11.53,2.76-.71,4.92-11.3,7-13.27,3-2.88,1.59-9.57,2.46-13.62q2.33-11,4.66-21.92c.6-2.86,1.18-6-.1-8.58A10.11,10.11,0,0,0,273,74a14.25,14.25,0,0,0-7-1.36C263.66,72.89,261.29,74,261.92,73.59Z"/>
            <path class="cls-6" d="M306.46,442.92a23,23,0,0,0-6.24,14.33c-.32,5.31,1.6,12.5,4.78,16.77.84,1.13,2.06.48,3.21-.33a2.93,2.93,0,0,0,.87-2.36C309.55,461.76,309.09,452.15,306.46,442.92Z"/>
            <path class="cls-8" d="M346.87,312.81c5.23.1,10.56.21,15.54,1.84s9.63,5.06,11.45,10c1.61,4.32.84,9.11,0,13.65q-13.08,74.87-28.54,149.29a5.83,5.83,0,0,1-1.07,2.73c-1.38,1.59-4.11,1.19-5.63-.27s-2.12-3.59-2.64-5.63c-7.37-28.51-11.62-58-10.53-87.4S333.09,338.14,346.87,312.81Z"/>
            <path class="cls-6" d="M195,200l9.56-33.21c.77-2.68,1.54-5.57.63-8.2-1.56-4.55-7.13-6.09-11.91-6.65-5.27-.62-11.14-.69-15.27,2.66-3.58,2.91-5,7.67-6.14,12.13-2.61,9.82-5.23,19.71-6,29.84-.33,4.26-.19,8.94,2.5,12.26,2.34,2.88,6.23,4.14,9.93,4.1C187.94,212.8,196.54,203.71,195,200Z"/>
            <path class="cls-8" d="M338.06,480.52a22.46,22.46,0,0,0-7.91,16.58,5.1,5.1,0,0,0,.73,3.17c.84,1.12,2.35,1.47,3.73,1.72a241.2,241.2,0,0,0,31.59,3.66c1.39.07,3.19-.16,3.52-1.51a2.11,2.11,0,0,0-.86-2.05,7.63,7.63,0,0,0-2.1-1,26.38,26.38,0,0,1-10.92-8.92,80.38,80.38,0,0,1-7.14-12.33c-.85-1.69-1.9-3.54-3.73-4s-4,.83-5.22,2.43S337.67,481.74,338.06,480.52Z"/>
            <path class="cls-9" d="M236.46,101,263,135l11.66-31.27c7.51,2.75,15,5.52,22.36,8.71a16.74,16.74,0,0,1,5.66,3.45c2,2.12,2.83,5.08,3.58,7.9L316.87,164c-9.29,1.69-19.39,3.83-25.38,11.13-2.77,3.37-4.37,7.54-5.73,11.67a150.06,150.06,0,0,0-7.55,48.28A195,195,0,0,1,195.47,231c-1.56-.42-3.21-.93-4.19-2.21-1.39-1.82-.85-4.42-.23-6.64q7.42-27,14.86-53.92a165.05,165.05,0,0,0-39.15-10.14c14.3-11.11,15.32-33.86,29.82-44.71,11.29-8.44,27.33-7,39.69-13.81C236.86,100.75,237.45,101.89,236.46,101Z"/>
            <path class="cls-6" d="M269,209.35c.7-2.91.59-5.95,1-8.91s1.53-6,4-7.76c3.5-2.46,8.32-1.33,12.46-2.39l-4.08,8.47c-1.91,4-3.94,8.08-7.44,10.76a5.38,5.38,0,0,1-3.81,1.36C269.71,210.7,268.45,209.29,269,209.35Z"/>
            <path class="cls-6" d="M273.42,206.72l-58.88-11.84c-9.1-1.83-18.6-3.65-27.52-1.14a29.7,29.7,0,0,0-15.68,10.77c-1.28,1.72-2.39,4.06-1.3,5.91.86,1.44,2.68,1.91,4.33,2.23a210.94,210.94,0,0,0,95.3-3.49,3.68,3.68,0,0,0,1.91-1C272.05,207.64,272.06,206.64,273.42,206.72Z"/>
            <path class="cls-8" d="M256,78.93A119.58,119.58,0,0,0,264.94,96c2.25,3.57,5.19,7.33,9.38,7.84l-1.86,5.46a2.52,2.52,0,0,1-1,1.55,2.26,2.26,0,0,1-2.29-.57,16.53,16.53,0,0,1-4-5.44A93.19,93.19,0,0,1,256,78.93Z"/>
            <path class="cls-10" d="M280,327.61l-86.49-.14c-4.59,0-9.44.06-13.34,2.48s-6.12,8.1-3.32,11.73q53.56,3,107.27,2.38c2.27,0,4.7-.11,6.57-1.41,2.79-1.94,3.28-6.19,1.61-9.15s-5-4.7-8.34-5.28S277.18,328.06,280,327.61Z"/>
            <path class="cls-8" d="M174.4,159.34c10.85,2.12,19.78,3.82,29.86,8.35-.9,3.27-2,6.73-2.88,10-8.92-7.6-16.41-13.56-27.71-16.68C173.87,160.51,174.08,160,174.4,159.34Z"/>
            <path class="cls-11" d="M203.26,233a155,155,0,0,0-18.82,56.42c-.93,7.42-1.26,15.23,1.63,22.13,3,7.09,9.13,12.5,16,15.87s14.57,4.9,22.18,5.95c25.56,3.51,51.52,2,77.27.43a102,102,0,0,1,31.49-55.6c2.64-2.37,5.3-5.19,8.78-5.88,1.47-.29,5.71.5,9.58,1C329,260.16,303.21,253.73,277.08,256c-1.64-6.47-3.58-13.53-5.22-20C248.61,239,227,237,203.26,233Z"/>
            <path class="cls-12" d="M279.84,39.58c-1.41,12.94-5.45,25.71-12.66,36.56s-17.66,19.69-29.94,24c-2.82,1-5.83,1.76-8.77,1.23s-5.77-2.66-6.29-5.61c-4.39,2.82-10.55,1.35-14.35-2.22s-5.66-8.75-6.77-13.85c-1.34-6.13-1.77-12.61,0-18.64s6-11.54,11.89-13.74A17.59,17.59,0,0,1,213.73,28,17.58,17.58,0,0,1,232,21.67c-2-2.5-.11-6.53,2.82-7.83s6.32-.71,9.46-.1c-.61-4.65,3.86-8.83,8.52-9.28S262,6.39,265.62,9.38a17.89,17.89,0,0,1,20-8.81,17.9,17.9,0,0,1,12.73,17.81,13.84,13.84,0,0,1,11,21.71A21.12,21.12,0,0,1,302.7,76.9a6.51,6.51,0,0,1-8.33,7.94,51.4,51.4,0,0,0,5.92-26.16C289.66,57.87,280.25,48.77,279.84,39.58Z"/>
            <path class="cls-13" d="M236,17.63a8.24,8.24,0,0,1-14.36,2.08,5.93,5.93,0,0,1-1.12-5.11,3.79,3.79,0,0,1,4.14-2.7c1.76.38,2.86,2.78,1.72,4.19"/>
            <path class="cls-13" d="M205.09,74.1a19.15,19.15,0,0,1-4.81,3.49,8.86,8.86,0,0,1-5.8.78,5.81,5.81,0,0,1-4.25-3.79,4.38,4.38,0,0,1,2.05-5.09,2.84,2.84,0,0,1,3.25.43,1.88,1.88,0,0,1-.51,2.93"/>
            <path class="cls-13" d="M293.56,17.84a9.12,9.12,0,0,0,7.75-8.74,4.79,4.79,0,0,0-.87-3,2.51,2.51,0,0,0-2.83-.88,1.73,1.73,0,0,0-.7,2.61"/>
            <path class="cls-13" d="M300.85,73.8a31.57,31.57,0,0,0-5.92,9.52,11.24,11.24,0,0,0-.91,3.81,5,5,0,0,0,1.26,3.62,3.31,3.31,0,0,0,3.6.85,2.47,2.47,0,0,0,1.23-3.28,2,2,0,0,0-3.24-.17"/>
            <path class="cls-13" d="M281.8,36.5A13.16,13.16,0,0,0,278,44.63a63.76,63.76,0,0,0-.14,9.17c0,7.52-1.33,15.33-5.7,21.45S260,85.41,252.63,83.69"/>
            <path class="cls-14" d="M283.44,129.77a414.59,414.59,0,0,0,4.15,50.51c3.13-3.09,6.44-6.56,6.85-10.93a18.91,18.91,0,0,0-1.07-6.84C290.29,151.76,287.13,141,283.44,129.77Z"/>
            <path class="cls-15" d="M271.82,111.29a16.07,16.07,0,0,0,7.59-5.94,8.12,8.12,0,0,0-4.94-1C273.58,106.87,272.69,109.43,271.82,111.29Z"/>
            <path class="cls-14" d="M205.21,172.75A25.21,25.21,0,0,1,215.5,177l-1.75-36.86q-1.74,15.13-4.66,30.11l-3.35-1.78A23.09,23.09,0,0,0,205.21,172.75Z"/>
            <path class="cls-16" d="M402.06,156.53a4.81,4.81,0,0,0-4.27-6.83L305.86,148h-1.27l-30,63.21a4.81,4.81,0,0,0,4.39,6.87l92-.82a4.79,4.79,0,0,0,4.32-2.79Z"/>
            <path class="cls-5" d="M177.4,218.5l224.66-3.33.17,5a7.75,7.75,0,0,1-7.65,8L183.46,230.8"/>
            <path class="cls-16" d="M369.77,192.51H329.19a4.4,4.4,0,0,0-4.3,5.36l4.18,18.88a5.42,5.42,0,0,0,5.35,4.26l47.21-.38a2.75,2.75,0,0,0,2.52-3.77l-8-20.07A6.81,6.81,0,0,0,369.77,192.51Z"/>
            <path class="cls-7" d="M305.09,149a9.88,9.88,0,0,1,1.77,1.51l-29.95,61.59a7.58,7.58,0,0,0-1,3.3,2.56,2.56,0,0,0,1.93,2.55"/>
            <polyline class="cls-7" points="306.54 150.7 399.18 151.84 401.24 153.07 402.16 155.55"/>
            <path class="cls-17" d="M333,488.36c3.89-1,8,.68,11.25,3s6,5.31,9.44,7.44,7.77,3.33,11.41,1.66l-4.3-2.64,6.87,2.23a7.76,7.76,0,0,1,3.77,2.09c.92,1.14.95,3.11-.31,3.84a3.72,3.72,0,0,1-2.07.32,186.94,186.94,0,0,1-36.32-4.94,6.82,6.82,0,0,1-2.79-1.14c-1.48-1.22-1.67-3.4-1.5-5.31a9.12,9.12,0,0,1,1.66-5C331.25,488.57,333.21,487.75,333,488.36Z"/>
            <polygon class="cls-7" points="185.18 342.18 165.63 503.16 169.69 503.16 200.17 342.83 185.18 342.18"/>
            <polygon class="cls-7" points="232.96 343.88 238.28 503.16 241.79 503.16 245.72 343.88 232.96 343.88"/>
            <path class="cls-6" d="M341.18,271.62c6.89.59,14.73,1.71,18.56,7.46,3.42,5.15,2.21,12,.76,18-13.93,57.46-38.66,112-50.78,169.87-.36,1.71-1.27,3.88-3,3.71s-2.21-2.21-2.39-3.84q-2.1-19.6-4.22-39.2C297,399.18,294,370.3,299,342.17S318.33,286.23,341.18,271.62Z"/>
            <polygon class="cls-7" points="174.66 460.57 298.25 463.03 297.54 461.08 174.97 458.75 174.66 460.57"/>
            <path class="cls-17" d="M302.57,448.66a24.88,24.88,0,0,0,2.31,23.75c.65.93,1.69,1.93,2.76,1.54s1.23-1.65,1.18-2.72-.19-2.27.48-3.09q1.79,6.15,3.06,12.42c.39,1.91.65,4.18-.76,5.53a4,4,0,0,1-4.37.42,10.16,10.16,0,0,1-3.43-3.13,49.7,49.7,0,0,1-10.14-22.92c-.43-2.79-.57-5.75.53-8.35s3.73-4.73,6.54-4.43C301.54,447.76,302.43,448.14,302.57,448.66Z"/>
            <g>
              <rect class="cls-18" x="381.36" y="53.84" width="55.82" height="73.5" transform="translate(138.06 -229.02) rotate(37.2)"/>
              <path class="cls-19" d="M411.59,110.26,389.71,93.65a.67.67,0,0,1-.13-1,.68.68,0,0,1,.95-.13l21.88,16.61a.68.68,0,1,1-.82,1.08Z"/>
              <path class="cls-19" d="M415.58,105,393.7,88.39a.66.66,0,0,1-.13-.94.67.67,0,0,1,.95-.13l21.88,16.6a.68.68,0,0,1,.13,1A.67.67,0,0,1,415.58,105Z"/>
              <path class="cls-19" d="M407.6,115.51l-21.88-16.6a.68.68,0,0,1,.82-1.08l21.88,16.61a.67.67,0,1,1-.82,1.07Z"/>
              <path class="cls-19" d="M403.61,120.77l-21.88-16.61a.67.67,0,0,1-.13-1,.69.69,0,0,1,.95-.13l21.88,16.61a.68.68,0,0,1,.13,1A.67.67,0,0,1,403.61,120.77Z"/>
              <g class="cls-20">
                <circle class="cls-19" cx="418.06" cy="78.58" r="15.94"/>
                <g>
                  <circle class="cls-18" cx="422.01" cy="73.81" r="6.19" transform="translate(108.06 365.32) rotate(-52.8)"/>
                  <path class="cls-18" d="M414.1,99.84a5.24,5.24,0,0,0,7.5-3.67L423,88.85a5.27,5.27,0,0,0-2-5.21l-8.25-6.26a5.28,5.28,0,0,0-5.55-.51l-6.66,3.34a5.25,5.25,0,0,0-1.52,8.22Z"/>
                </g>
              </g>
            </g>
            <g>
              <rect class="cls-18" x="68.62" y="78.9" width="55.82" height="73.5" transform="translate(89.57 -34.83) rotate(37.2)"/>
              <path class="cls-19" d="M98.85,135.32,77,118.71a.67.67,0,0,1-.13-.95.68.68,0,0,1,1-.13l21.87,16.61a.68.68,0,0,1-.81,1.08Z"/>
              <path class="cls-19" d="M102.84,130.06,81,113.45a.67.67,0,0,1,.81-1.07L103.65,129a.67.67,0,0,1,.13,1A.66.66,0,0,1,102.84,130.06Z"/>
              <path class="cls-19" d="M94.86,140.57,73,124a.68.68,0,0,1,.82-1.08L95.68,139.5a.67.67,0,0,1,.12.94A.66.66,0,0,1,94.86,140.57Z"/>
              <path class="cls-19" d="M90.87,145.83,69,129.22a.67.67,0,0,1-.13-.95.69.69,0,0,1,1-.13l21.88,16.61a.69.69,0,0,1,.13.95A.67.67,0,0,1,90.87,145.83Z"/>
              <g class="cls-21">
                <circle class="cls-19" cx="105.32" cy="103.64" r="15.94"/>
                <g>
                  <circle class="cls-18" cx="109.27" cy="98.87" r="6.19" transform="translate(-35.55 126.13) rotate(-52.8)"/>
                  <path class="cls-18" d="M101.36,124.9a5.24,5.24,0,0,0,7.5-3.67l1.43-7.32a5.25,5.25,0,0,0-2-5.21l-8.24-6.26a5.28,5.28,0,0,0-5.55-.51l-6.66,3.34a5.25,5.25,0,0,0-1.53,8.22Z"/>
                </g>
              </g>
            </g>
            <g>
              <polygon class="cls-18" points="488.63 99.11 435.86 91.02 433.45 90.65 444.6 18 499.77 26.46 488.63 99.11"/>
              <path class="cls-19" d="M478,74.74l-27.15-4.17a.68.68,0,0,1-.57-.77.68.68,0,0,1,.77-.57l27.15,4.17a.67.67,0,0,1,.57.77A.68.68,0,0,1,478,74.74Z"/>
              <path class="cls-19" d="M479,68.21l-27.15-4.16a.68.68,0,1,1,.2-1.34l27.15,4.17a.67.67,0,1,1-.2,1.33Z"/>
              <path class="cls-19" d="M477,81.26l-27.16-4.17a.67.67,0,1,1,.21-1.33l27.15,4.16a.68.68,0,1,1-.2,1.34Z"/>
              <path class="cls-19" d="M476,87.78l-27.16-4.16a.69.69,0,0,1-.56-.78.67.67,0,0,1,.77-.56l27.15,4.16a.69.69,0,0,1,.57.77A.68.68,0,0,1,476,87.78Z"/>
              <g class="cls-22">
                <circle class="cls-19" cx="468.61" cy="43.81" r="15.94"/>
                <g>
                  <circle class="cls-18" cx="469.81" cy="37.73" r="6.19" transform="translate(361.29 496.39) rotate(-81.28)"/>
                  <path class="cls-18" d="M475.27,64.38a5.24,5.24,0,0,0,4.84-6.81l-2.23-7.11a5.25,5.25,0,0,0-4.23-3.63l-10.23-1.57a5.29,5.29,0,0,0-5.13,2.2L454,53.57a5.25,5.25,0,0,0,2.58,8Z"/>
                </g>
              </g>
            </g>
            <g>
              <polygon class="cls-18" points="150.25 293.49 97.48 285.4 95.08 285.03 106.22 212.38 161.4 220.84 150.25 293.49"/>
              <path class="cls-19" d="M139.65,269.12,112.5,265a.68.68,0,0,1-.57-.77.69.69,0,0,1,.78-.57l27.15,4.17a.66.66,0,0,1,.56.77A.68.68,0,0,1,139.65,269.12Z"/>
              <path class="cls-19" d="M140.65,262.59l-27.15-4.16a.68.68,0,1,1,.21-1.34l27.15,4.17a.67.67,0,1,1-.21,1.33Z"/>
              <path class="cls-19" d="M138.65,275.64l-27.15-4.17a.67.67,0,1,1,.2-1.33l27.16,4.16a.67.67,0,0,1,.56.77A.68.68,0,0,1,138.65,275.64Z"/>
              <path class="cls-19" d="M137.65,282.16,110.5,278a.69.69,0,0,1-.57-.78.67.67,0,0,1,.77-.56l27.16,4.16a.68.68,0,0,1-.21,1.34Z"/>
              <g class="cls-23">
                <circle class="cls-19" cx="130.24" cy="238.19" r="15.94"/>
                <g>
                  <circle class="cls-18" cx="131.43" cy="232.11" r="6.19" transform="translate(-117.92 326.83) rotate(-81.28)"/>
                  <path class="cls-18" d="M136.89,258.76a5.24,5.24,0,0,0,4.84-6.81l-2.23-7.11a5.25,5.25,0,0,0-4.23-3.63L125,239.64a5.28,5.28,0,0,0-5.12,2.2L115.66,248a5.25,5.25,0,0,0,2.58,8Z"/>
                </g>
              </g>
            </g>
            <g>
              <rect class="cls-18" x="426.31" y="153.18" width="55.82" height="73.5" transform="translate(-38.01 199.77) rotate(-23.84)"/>
              <path class="cls-19" d="M472.55,197.43l-25.13,11.1a.68.68,0,0,1-.54-1.24L472,196.19a.68.68,0,1,1,.55,1.24Z"/>
              <path class="cls-19" d="M469.88,191.39l-25.12,11.1a.68.68,0,0,1-.55-1.24l25.13-11.1a.68.68,0,0,1,.89.35A.67.67,0,0,1,469.88,191.39Z"/>
              <path class="cls-19" d="M475.22,203.46l-25.13,11.1a.67.67,0,0,1-.55-1.23l25.13-11.11a.68.68,0,0,1,.55,1.24Z"/>
              <path class="cls-19" d="M477.88,209.5l-25.12,11.1a.68.68,0,0,1-.55-1.24l25.13-11.1a.68.68,0,0,1,.54,1.24Z"/>
              <g class="cls-24">
                <circle class="cls-19" cx="447.97" cy="176.43" r="15.94"/>
                <g>
                  <circle class="cls-18" cx="445.71" cy="170.66" r="6.19" transform="translate(-30.95 194.68) rotate(-23.84)"/>
                  <path class="cls-18" d="M464.65,190.19a5.25,5.25,0,0,0,.42-8.35l-5.71-4.79a5.28,5.28,0,0,0-5.52-.79l-9.46,4.19a5.27,5.27,0,0,0-3.14,4.6l-.3,7.45a5.24,5.24,0,0,0,6.45,5.31Z"/>
                </g>
              </g>
            </g>
            <g>
              <rect class="cls-18" x="12.47" y="174.15" width="55.82" height="73.5" transform="translate(-81.79 34.31) rotate(-23.84)"/>
              <path class="cls-19" d="M58.71,218.4,33.58,229.5a.67.67,0,1,1-.54-1.23l25.12-11.11a.69.69,0,0,1,.9.35A.68.68,0,0,1,58.71,218.4Z"/>
              <path class="cls-19" d="M56,212.37l-25.12,11.1a.68.68,0,0,1-.89-.35.67.67,0,0,1,.34-.89l25.13-11.1a.68.68,0,1,1,.54,1.24Z"/>
              <path class="cls-19" d="M61.38,224.44l-25.13,11.1a.68.68,0,0,1-.55-1.24l25.13-11.1a.68.68,0,0,1,.55,1.24Z"/>
              <path class="cls-19" d="M64,230.47,38.92,241.58a.68.68,0,0,1-.89-.35.67.67,0,0,1,.34-.89l25.13-11.1a.67.67,0,1,1,.54,1.23Z"/>
              <g class="cls-25">
                <circle class="cls-19" cx="34.13" cy="197.4" r="15.94"/>
                <g>
                  <circle class="cls-18" cx="31.87" cy="191.63" r="6.19" transform="translate(-74.73 29.23) rotate(-23.84)"/>
                  <path class="cls-18" d="M50.81,211.16a5.24,5.24,0,0,0,.42-8.34L45.52,198a5.28,5.28,0,0,0-5.52-.78l-9.46,4.18A5.27,5.27,0,0,0,27.4,206l-.3,7.45a5.25,5.25,0,0,0,6.45,5.31Z"/>
                </g>
              </g>
            </g>
            <polygon class="cls-19" points="435.5 93.08 440.86 95.14 443.14 92.14 435.86 91.02 435.5 93.08"/>
          </g>
        </g>
        <path class="cls-12" d="M104,136.56a1.09,1.09,0,1,1,.17,1.55A1.06,1.06,0,0,1,104,136.56Zm1.86-1.79.26-.4a4.19,4.19,0,0,1,2.81-1.83,4,4,0,0,0,2.52-1.21A1.52,1.52,0,0,0,111,129a3.19,3.19,0,0,0-1.81-.66l.35-1.18a4.78,4.78,0,0,1,2.52,1c1.67,1.27,1.64,2.87.8,4a4.93,4.93,0,0,1-3.17,1.58,3.6,3.6,0,0,0-2.44,1.5l-.28.39Z"/>
        <path class="cls-12" d="M47.55,234.57a1.09,1.09,0,1,1,2-.86,1.07,1.07,0,0,1-.56,1.47A1.05,1.05,0,0,1,47.55,234.57Zm-.65-2.5-.22-.42a4.19,4.19,0,0,1-.22-3.34,4,4,0,0,0,.18-2.8,1.53,1.53,0,0,0-2.22-.75A3.22,3.22,0,0,0,43,226l-.86-.88a4.87,4.87,0,0,1,2.1-1.71c1.93-.83,3.31,0,3.86,1.25a4.88,4.88,0,0,1-.17,3.53,3.62,3.62,0,0,0,.11,2.88l.2.42Z"/>
        <path class="cls-12" d="M103.86,271.79a1.08,1.08,0,0,1,1.16-1.08,1.07,1.07,0,0,1,1,1.21,1.09,1.09,0,1,1-2.17-.13Zm.56-2.52v-.48a4.2,4.2,0,0,1,1.31-3.08,4,4,0,0,0,1.43-2.42c0-.92-.49-1.58-1.64-1.67a3.32,3.32,0,0,0-1.87.46l-.37-1.17a4.8,4.8,0,0,1,2.65-.58c2.09.13,3,1.48,2.88,2.86a4.93,4.93,0,0,1-1.76,3.08,3.65,3.65,0,0,0-1.2,2.61v.47Z"/>
        <path class="cls-12" d="M457.77,168.05a1.09,1.09,0,1,1,1.93-1,1.09,1.09,0,1,1-1.93,1Zm-.83-2.45-.25-.4a4.21,4.21,0,0,1-.46-3.32,4,4,0,0,0,0-2.81,1.53,1.53,0,0,0-2.26-.59,3.32,3.32,0,0,0-1.37,1.36l-.92-.82a4.86,4.86,0,0,1,2-1.85c1.86-1,3.3-.27,3.95,1a5,5,0,0,1,.08,3.54,3.62,3.62,0,0,0,.32,2.86l.23.41Z"/>
        <path class="cls-12" d="M456.52,36.34a1.08,1.08,0,0,1,1.33-.86,1.14,1.14,0,1,1-1.33.86Zm1-2.39.07-.47a4.17,4.17,0,0,1,1.83-2.8,4,4,0,0,0,1.82-2.14,1.53,1.53,0,0,0-1.32-1.93,3.26,3.26,0,0,0-1.92.13l-.16-1.22a4.76,4.76,0,0,1,2.7-.11c2,.49,2.67,2,2.35,3.32a5,5,0,0,1-2.26,2.72A3.65,3.65,0,0,0,459,33.82l-.09.46Z"/>
        <path class="cls-12" d="M382,92.6a1.08,1.08,0,0,1,1.57-.25,1.14,1.14,0,1,1-1.57.25Zm1.86-1.79.26-.4a4.19,4.19,0,0,1,2.81-1.83,4,4,0,0,0,2.53-1.21,1.53,1.53,0,0,0-.44-2.3,3.19,3.19,0,0,0-1.8-.66l.34-1.18a4.78,4.78,0,0,1,2.52,1c1.67,1.27,1.64,2.87.8,4a4.93,4.93,0,0,1-3.16,1.58,3.6,3.6,0,0,0-2.45,1.5l-.27.39Z"/>
      </g>
    </g>
  </g>
</svg>
