<svg width="160" height="56" viewBox="0 0 160 56" fill="none" xmlns="http://www.w3.org/2000/svg">
<path fill-rule="evenodd" clip-rule="evenodd" d="M25.3426 16C24.4335 16 23.6025 16.5136 23.196 17.3267L21.4593 20.8H33.0556C33.2414 20.8 33.3623 20.9956 33.2792 21.1618L32.3983 22.9236C32.3136 23.093 32.1405 23.2 31.9511 23.2H20.2601V23.1985L19.0593 25.6H24.6556C24.8414 25.6 24.9623 25.7956 24.8792 25.9618L23.9983 27.7236C23.9136 27.893 23.7405 28 23.5511 28L17.8593 28L15.4601 28H9.74319C8.83414 28 8.0031 28.5136 7.59656 29.3267L3.12824 38.2633C2.7293 39.0612 3.30949 40 4.20155 40H30.7766C31.6857 40 32.5167 39.4864 32.9233 38.6733L34.6599 35.2H21.9176C21.7199 35.2 21.6004 34.9814 21.7071 34.815L22.8526 33.03C22.9445 32.8867 23.1031 32.8 23.2734 32.8H35.8599L37.0599 30.4H29.086C28.8951 30.4 28.7747 30.1948 28.8677 30.0281L29.8569 28.2563C29.9452 28.098 30.1122 28 30.2934 28H38.2599H39.4601L46.376 28C47.2851 28 48.1161 27.4864 48.5227 26.6733L52.991 17.7367C53.3899 16.9388 52.8097 16 51.9177 16H25.3426Z" fill="url(#paint0_linear_66_9014)"/>
<path d="M68.368 36.264L67.668 34.92H80.604V38H65.232V35.088L77.16 21.256L77.832 22.6H65.456V19.52H80.268V22.432L68.368 36.264ZM88.5333 38.28C87.0586 38.28 85.7706 37.9907 84.6693 37.412C83.5866 36.8333 82.7466 36.0027 82.1492 34.92C81.5519 33.8373 81.2532 32.5307 81.2532 31C81.2532 29.4693 81.5519 28.1627 82.1492 27.08C82.7466 25.9973 83.5772 25.1667 84.6412 24.588C85.7239 24.0093 86.9559 23.72 88.3373 23.72C89.7559 23.72 90.9599 24.0093 91.9493 24.588C92.9386 25.148 93.6946 25.9227 94.2173 26.912C94.7399 27.8827 95.0013 28.9933 95.0013 30.244C95.0013 30.6173 94.9919 30.972 94.9733 31.308C94.9546 31.644 94.9266 31.9427 94.8893 32.204H83.7172V29.544H93.2093L91.3613 30.216C91.3613 29.04 91.0906 28.1347 90.5493 27.5C90.0266 26.8653 89.2799 26.548 88.3092 26.548C87.5999 26.548 86.9839 26.716 86.4612 27.052C85.9572 27.388 85.5746 27.892 85.3133 28.564C85.0519 29.2173 84.9213 30.048 84.9213 31.056C84.9213 32.0453 85.0613 32.8667 85.3413 33.52C85.6399 34.1547 86.0506 34.6307 86.5733 34.948C87.1146 35.2653 87.7586 35.424 88.5052 35.424C89.3266 35.424 89.9892 35.2653 90.4933 34.948C90.9973 34.6307 91.3893 34.192 91.6693 33.632L94.7213 34.808C94.4226 35.536 93.9652 36.1613 93.3493 36.684C92.7519 37.2067 92.0333 37.608 91.1933 37.888C90.3719 38.1493 89.4853 38.28 88.5333 38.28ZM96.9921 38V24H100.436L100.66 28.2L100.184 27.752C100.408 26.8373 100.763 26.0813 101.248 25.484C101.733 24.8867 102.321 24.448 103.012 24.168C103.721 23.8693 104.496 23.72 105.336 23.72C106.307 23.72 107.165 23.9067 107.912 24.28C108.677 24.6533 109.275 25.2227 109.704 25.988C110.152 26.7347 110.376 27.6773 110.376 28.816V38H106.54V29.908C106.54 28.7133 106.307 27.892 105.84 27.444C105.373 26.9773 104.767 26.744 104.02 26.744C103.497 26.744 102.984 26.8747 102.48 27.136C101.995 27.3787 101.593 27.78 101.276 28.34C100.977 28.9 100.828 29.6467 100.828 30.58V38H96.9921ZM118.36 38.28C117.203 38.28 116.167 37.9907 115.252 37.412C114.356 36.8333 113.647 36.0027 113.124 34.92C112.62 33.8373 112.368 32.54 112.368 31.028C112.368 29.4787 112.639 28.1627 113.18 27.08C113.721 25.9787 114.449 25.148 115.364 24.588C116.297 24.0093 117.343 23.72 118.5 23.72C119.732 23.72 120.749 24.0747 121.552 24.784C122.355 25.4933 122.877 26.408 123.12 27.528L122.756 27.976V17.868H126.592V38H123.148L122.896 33.744L123.372 33.968C123.241 34.8453 122.943 35.6107 122.476 36.264C122.009 36.8987 121.421 37.3933 120.712 37.748C120.003 38.1027 119.219 38.28 118.36 38.28ZM119.48 35.34C120.152 35.34 120.731 35.172 121.216 34.836C121.701 34.4813 122.075 33.968 122.336 33.296C122.616 32.624 122.756 31.8213 122.756 30.888C122.756 29.992 122.625 29.236 122.364 28.62C122.103 27.9853 121.729 27.5 121.244 27.164C120.759 26.828 120.189 26.66 119.536 26.66C118.491 26.66 117.669 27.0333 117.072 27.78C116.493 28.508 116.204 29.5813 116.204 31C116.204 32.4187 116.493 33.5013 117.072 34.248C117.651 34.976 118.453 35.34 119.48 35.34ZM135.859 38.28C134.384 38.28 133.096 37.9907 131.995 37.412C130.912 36.8333 130.072 36.0027 129.475 34.92C128.877 33.8373 128.579 32.5307 128.579 31C128.579 29.4693 128.877 28.1627 129.475 27.08C130.072 25.9973 130.903 25.1667 131.967 24.588C133.049 24.0093 134.281 23.72 135.663 23.72C137.081 23.72 138.285 24.0093 139.275 24.588C140.264 25.148 141.02 25.9227 141.543 26.912C142.065 27.8827 142.327 28.9933 142.327 30.244C142.327 30.6173 142.317 30.972 142.299 31.308C142.28 31.644 142.252 31.9427 142.215 32.204H131.043V29.544H140.535L138.687 30.216C138.687 29.04 138.416 28.1347 137.875 27.5C137.352 26.8653 136.605 26.548 135.635 26.548C134.925 26.548 134.309 26.716 133.787 27.052C133.283 27.388 132.9 27.892 132.639 28.564C132.377 29.2173 132.247 30.048 132.247 31.056C132.247 32.0453 132.387 32.8667 132.667 33.52C132.965 34.1547 133.376 34.6307 133.899 34.948C134.44 35.2653 135.084 35.424 135.831 35.424C136.652 35.424 137.315 35.2653 137.819 34.948C138.323 34.6307 138.715 34.192 138.995 33.632L142.047 34.808C141.748 35.536 141.291 36.1613 140.675 36.684C140.077 37.2067 139.359 37.608 138.519 37.888C137.697 38.1493 136.811 38.28 135.859 38.28ZM144.318 38V24H147.762L147.986 28.2L147.51 27.752C147.734 26.8373 148.088 26.0813 148.574 25.484C149.059 24.8867 149.647 24.448 150.338 24.168C151.047 23.8693 151.822 23.72 152.662 23.72C153.632 23.72 154.491 23.9067 155.238 24.28C156.003 24.6533 156.6 25.2227 157.03 25.988C157.478 26.7347 157.702 27.6773 157.702 28.816V38H153.866V29.908C153.866 28.7133 153.632 27.892 153.166 27.444C152.699 26.9773 152.092 26.744 151.346 26.744C150.823 26.744 150.31 26.8747 149.806 27.136C149.32 27.3787 148.919 27.78 148.602 28.34C148.303 28.9 148.154 29.6467 148.154 30.58V38H144.318Z" fill="#0F0B29"/>
<defs>
<linearGradient id="paint0_linear_66_9014" x1="3" y1="23.7538" x2="51.6263" y2="24.2228" gradientUnits="userSpaceOnUse">
<stop stop-color="#59CAD1"/>
<stop offset="0.281052" stop-color="#6267F0"/>
<stop offset="1" stop-color="#D462F0"/>
</linearGradient>
</defs>
</svg>
